<svg viewBox="0 0 640 512" fill="none" xmlns="http://www.w3.org/2000/svg">
<path d="M454.681 341H479.1C556.956 341 619 403.352 619 479.1C619 486.427 613.681 491 608 491H499.894C500.616 486.56 501 481.986 501 477.3C501 426.066 483.831 378.887 454.681 341ZM331 128C331 187.093 283.101 235 224 235C164.899 235 117 187.093 117 128C117 68.9069 164.899 21 224 21C283.101 21 331 68.9069 331 128ZM21 477.3C21 393.196 89.1703 325 173.3 325H274.7C358.802 325 427 393.198 427 477.3C427 484.902 420.902 491 413.3 491H34.66C27.1259 491 21 484.91 21 477.3ZM523 144C523 194.302 482.302 235 432 235C412.715 235 394.887 228.99 380.174 218.741C395.795 192.146 405 161.222 405 128C405 104.608 400.132 82.6286 392.065 62.5303C404.181 56.4432 417.682 53 432 53C482.302 53 523 93.698 523 144Z" stroke="currentColor" stroke-width="42"/>
</svg>